<?xml version="1.0" standalone="no"?>
<!DOCTYPE svg PUBLIC "-//W3C//DTD SVG 20010904//EN"
 "http://www.w3.org/TR/2001/REC-SVG-20010904/DTD/svg10.dtd">
<svg version="1.0" xmlns="http://www.w3.org/2000/svg"
 width="547.000000pt" height="546.000000pt" viewBox="0 0 547.000000 546.000000"
 preserveAspectRatio="xMidYMid meet">

<g transform="translate(0.000000,546.000000) scale(0.100000,-0.100000)"
fill="#000000" stroke="none">
<path d="M213 5446 c-100 -32 -169 -93 -198 -177 -22 -62 -22 -817 0 -879 24
-67 69 -116 143 -152 l67 -33 410 0 c398 0 411 1 456 21 63 30 123 86 151 142
20 41 23 66 26 195 l4 147 184 0 184 0 0 -305 0 -304 -124 -3 -125 -3 175
-270 c96 -148 177 -269 181 -269 3 1 84 123 180 270 l173 269 -125 3 -125 3 0
424 0 425 -300 0 -300 0 0 148 c0 133 -2 152 -24 197 -26 58 -80 109 -145 139
-44 20 -63 21 -436 23 -303 2 -399 -1 -432 -11z m813 -182 c63 -30 64 -34 64
-429 0 -393 -1 -397 -63 -435 -30 -19 -53 -20 -390 -20 -384 0 -407 3 -441 51
-14 21 -16 68 -16 397 0 245 4 380 11 393 5 11 25 29 42 39 30 19 53 20 395
20 316 0 369 -2 398 -16z"/>
<path d="M1287 3347 c-53 -17 -106 -63 -128 -111 -17 -38 -19 -73 -19 -504 0
-395 2 -468 15 -500 20 -47 50 -78 100 -105 l40 -22 1448 -3 c954 -1 1462 1
1486 8 53 14 101 49 125 90 19 31 21 55 24 223 l4 187 174 0 174 0 -2 -317 -3
-318 -123 -3 c-69 -1 -122 -7 -120 -12 6 -17 343 -539 348 -539 5 0 342 522
348 539 2 5 -51 11 -120 12 l-123 3 -3 438 -2 437 -279 0 -279 0 -4 183 c-3
161 -5 187 -24 222 -23 45 -69 80 -123 95 -55 15 -2884 12 -2934 -3z m873
-617 l0 -450 -408 0 c-304 0 -411 3 -420 12 -9 9 -12 121 -12 443 0 238 3 435
7 438 3 4 192 7 420 7 l413 0 0 -450z m1020 0 l0 -450 -420 0 -420 0 0 450 0
450 420 0 420 0 0 -450z m1024 434 c8 -20 8 -832 0 -861 l-6 -23 -419 0 -419
0 0 450 0 450 419 0 c373 0 420 -2 425 -16z"/>
<path d="M4413 1246 c-100 -32 -169 -93 -198 -177 -22 -62 -22 -817 0 -879 24
-67 69 -116 143 -152 l67 -33 410 0 c398 0 411 1 456 21 63 30 123 86 151 142
23 47 23 49 23 457 l0 410 -28 57 c-32 66 -70 101 -147 137 l-55 26 -390 2
c-303 2 -399 -1 -432 -11z m813 -182 c63 -30 64 -34 64 -429 0 -393 -1 -397
-63 -435 -30 -19 -53 -20 -390 -20 -384 0 -407 3 -441 51 -14 21 -16 68 -16
404 l0 382 23 20 c46 42 51 42 425 43 317 0 368 -2 398 -16z"/>
</g>
</svg>
